<svg id="Layer_1" xmlns="http://www.w3.org/2000/svg" viewBox="862.9 1501.8 287.7 100.1"><style>.st0{fill:#757575;} .st1{enable-background:new ;}</style><path class="st0" d="M915.7 1565l-39.5-63.2h-10.9c-2.2 0-3 1.5-1.9 3.4l26.5 43.3.1.2 18 28.7 7.7-12.4zM921.8 1555.2c1.1-1.8 1.1-4.9 0-6.7l-26.8-43.3c-1.1-1.8-3.9-3.4-6-3.4h-11l38.6 61.8 5.2-8.4zM899.4 1566.4l-22.1 35.4h11.8c2.2 0 4.9-1.5 6-3.4l10.7-17.3c0-.1.1-.2.3-.5l1.1-1.8-7.8-12.4zM890 1555.2l-26.5 43.3c-1.1 1.9-.3 3.4 1.9 3.4h10.1l23-36.8-7.7-12.4c-.1.9-.4 1.8-.8 2.5z"/><g class="st1"><path class="st0" d="M956.4 1550.2h15.5v19.3c-4.2 1.4-8.8 2.2-13.8 2.2-5.5 0-9.8-1.6-12.8-4.8-3-3.2-4.5-7.8-4.5-13.7 0-5.8 1.6-10.3 4.9-13.5 3.3-3.2 7.9-4.8 13.9-4.8 2.3 0 4.4.2 6.4.6s3.7 1 5.2 1.6l-3.1 7.6c-2.6-1.3-5.4-1.9-8.5-1.9-2.8 0-5 .9-6.6 2.8-1.5 1.8-2.3 4.5-2.3 7.9 0 3.3.7 5.9 2.1 7.7 1.4 1.8 3.4 2.6 6 2.6 1.4 0 2.8-.1 4-.4v-5.6h-6.4v-7.6zM1007.7 1552.5c0 6-1.6 10.6-4.9 13.8-3.3 3.2-7.9 4.9-13.9 4.9h-11.6v-35.8h12.4c5.7 0 10.2 1.5 13.3 4.4 3.1 2.9 4.7 7.1 4.7 12.7zm-10.1.3c0-3.3-.6-5.7-1.9-7.3-1.3-1.6-3.3-2.4-5.9-2.4H987v20.1h2.2c2.9 0 5.1-.9 6.5-2.6s1.9-4.3 1.9-7.8zM1026.5 1550.2h15.5v19.3c-4.2 1.4-8.8 2.2-13.8 2.2-5.5 0-9.8-1.6-12.8-4.8-3-3.2-4.5-7.8-4.5-13.7 0-5.8 1.6-10.3 4.9-13.5 3.3-3.2 7.9-4.8 13.9-4.8 2.3 0 4.4.2 6.4.6 2 .4 3.7 1 5.2 1.6l-3.1 7.6c-2.6-1.3-5.4-1.9-8.5-1.9-2.8 0-5 .9-6.6 2.8-1.5 1.8-2.3 4.5-2.3 7.9 0 3.3.7 5.9 2.1 7.7 1.4 1.8 3.4 2.6 6 2.6 1.4 0 2.8-.1 4-.4v-5.6h-6.4v-7.6z"/></g><g class="st1"><path class="st0" d="M1066.3 1571.2v-35.8h5.9v30.8h15.2v5h-21.1zM1097.1 1571.2l-10.3-27.1h6.1l5.5 15.8c.9 2.6 1.5 4.8 1.7 6.4h.2c.1-1.2.7-3.3 1.7-6.4l5.5-15.8h6.1l-10.3 27.1h-6.2zM1115.5 1536.9c0-1 .3-1.8.8-2.4.6-.6 1.4-.8 2.4-.8s1.8.3 2.4.8c.6.6.8 1.3.8 2.4 0 1-.3 1.8-.8 2.3s-1.4.8-2.4.8-1.9-.3-2.4-.8-.8-1.3-.8-2.3zm6.1 34.3h-5.8v-27.1h5.8v27.1zM1134 1571.2l-10.3-27.1h6.1l5.5 15.8c.9 2.6 1.5 4.8 1.7 6.4h.2c.1-1.2.7-3.3 1.7-6.4l5.5-15.8h6.1l-10.3 27.1h-6.2z"/></g></svg>