<svg xmlns="http://www.w3.org/2000/svg" width="2100" height="500.2" viewBox="40.3 -0.1 1565.2737 500.2"><path d="M106.77 316.1L-90.73 0h-54.5c-10.9 0-15.1 7.6-9.4 16.8l132.6 216.4.7 1.1 89.8 143.8 38.3-62zm30.5-49.3c5.7-9.2 5.7-24.3 0-33.6L3.27 16.7C-2.43 7.5-16.03-.1-26.83-.1h-55l193 308.9 26.1-42zM25.07 323l-110.6 177h58.8c10.8 0 24.4-7.5 30.1-16.8l53.5-86.5c.2-.3.6-1 1.5-2.4l5.6-9.1-38.9-62.2zm-47.1-56.2l-132.6 216.5c-5.7 9.3-1.4 16.8 9.4 16.8h50.7l115.1-184.2-38.6-61.9c-.5 4.8-1.8 9.3-4 12.8zM311.57 247.097h77.1v96.3c-20.9 7.2-44 10.8-69.1 10.8-27.5 0-48.8-8-63.9-24-15-16-22.6-38.7-22.6-68.3 0-28.8 8.2-51.3 24.7-67.4 16.5-16.1 39.5-24.1 69.2-24.1 11.2 0 21.9 1.1 31.8 3.2 10 2.1 18.7 4.8 26.1 8.1l-15.3 37.9c-12.9-6.4-27-9.5-42.4-9.5-14.1 0-25 4.6-32.7 13.8-7.7 9.2-11.6 22.3-11.6 39.3 0 16.7 3.5 29.4 10.5 38.2 7 8.8 17 13.1 30.1 13.1 7.2 0 13.8-.7 19.8-2.1v-28h-31.7v-37.3zm250.4 11.5c0 29.8-8.2 52.8-24.6 68.9-16.4 16.1-39.5 24.2-69.2 24.2h-57.8v-178.7h61.8c28.7 0 50.8 7.3 66.4 22 15.6 14.7 23.4 35.9 23.4 63.6zm-50.1 1.7c0-16.4-3.2-28.5-9.7-36.4-6.5-7.9-16.3-11.9-29.5-11.9h-14.1v100.1h10.8c14.7 0 25.4-4.3 32.3-12.8 6.8-8.5 10.2-21.5 10.2-39zm139.2-13.2h77.1v96.3c-20.9 7.2-44 10.8-69.1 10.8-27.5 0-48.8-8-63.9-24-15-16-22.6-38.7-22.6-68.3 0-28.8 8.2-51.3 24.7-67.4 16.5-16.1 39.5-24.1 69.2-24.1 11.2 0 21.9 1.1 31.8 3.2 10 2.1 18.7 4.8 26.1 8.1l-15.3 37.9c-12.9-6.4-27-9.5-42.4-9.5-14.1 0-25 4.6-32.7 13.8-7.7 9.2-11.6 22.3-11.6 39.3 0 16.7 3.5 29.4 10.5 38.2 7 8.8 17 13.1 30.1 13.1 7.2 0 13.8-.7 19.8-2.1v-28h-31.9v-37.3h.2z" fill="#757575"/><g style="line-height:125%;-inkscape-font-specification:'Open Sans Bold'" font-weight="700" font-size="255" font-family="Open Sans" letter-spacing="0" word-spacing="0" fill="#757575"><path d="M812.804 351.707V169.67h38.6v182.037h-38.6zM991.603 310.37q0 21.415-14.942 32.62-14.815 11.207-44.45 11.207-15.19 0-25.898-2.116-10.708-1.99-20.046-5.976v-31.377q10.583 4.98 23.782 8.342 13.322 3.36 23.408 3.36 20.67 0 20.67-11.952 0-4.482-2.74-7.222-2.74-2.863-9.463-6.35-6.724-3.61-17.93-8.342-16.062-6.724-23.657-12.45-7.47-5.73-10.957-13.075-3.363-7.47-3.363-18.304 0-18.552 14.32-28.638 14.442-10.21 40.84-10.21 25.15 0 48.932 10.957l-11.456 27.393q-10.46-4.482-19.55-7.346-9.088-2.864-18.55-2.864-16.81 0-16.81 9.09 0 5.104 5.354 8.84 5.478 3.735 23.782 11.08 16.31 6.6 23.906 12.328 7.595 5.727 11.206 13.198 3.61 7.47 3.61 17.805zM1080.13 323.94q9.962 0 23.907-4.357v28.264q-14.194 6.35-34.863 6.35-22.786 0-33.245-11.455-10.336-11.58-10.336-34.614v-67.112h-18.178v-16.062l20.918-12.7 10.957-29.385h24.28v29.633h38.973v28.513h-38.972v67.112q0 8.093 4.483 11.953 4.607 3.86 12.078 3.86zM1220.455 351.707l-7.346-18.926h-.997q-9.587 12.08-19.797 16.81-10.086 4.607-26.397 4.607-20.047 0-31.627-11.455-11.455-11.455-11.455-32.622 0-22.163 15.44-32.622 15.564-10.583 46.816-11.704l24.155-.747v-6.1q0-21.168-21.666-21.168-16.684 0-39.22 10.084l-12.577-25.65q24.03-12.575 53.29-12.575 28.017 0 42.958 12.2 14.94 12.204 14.94 37.106v92.76h-26.52zm-11.206-64.497l-14.693.498q-16.56.498-24.653 5.977-8.094 5.478-8.094 16.684 0 16.06 18.428 16.06 13.198 0 21.043-7.594 7.97-7.595 7.97-20.17V287.21zM1414.445 351.707h-37.976V270.4q0-15.065-5.355-22.536-5.354-7.595-17.058-7.595-15.938 0-23.035 10.707-7.097 10.584-7.097 35.237v65.493h-37.976V212.503h29.01l5.105 17.805h2.117q6.35-10.085 17.43-15.19 11.207-5.23 25.4-5.23 24.28 0 36.857 13.2 12.575 13.072 12.575 37.85v90.77zM1531.237 209.888q24.653 0 38.598 19.3 13.946 19.174 13.946 52.668 0 34.49-14.443 53.416-14.32 18.925-39.097 18.925-24.528 0-38.474-17.805h-2.614l-6.35 15.315h-29.012v-193.74h37.976v45.073q0 8.59-1.494 27.517h1.494q13.323-20.67 39.47-20.67zm-12.203 30.38q-14.07 0-20.544 8.717-6.475 8.59-6.724 28.513v4.11q0 22.41 6.6 32.123 6.723 9.713 21.166 9.713 11.705 0 18.553-10.708 6.972-10.833 6.972-31.377 0-20.544-6.972-30.754-6.973-10.335-19.05-10.335zM1713.77 351.707l-5.104-17.805h-1.992q-6.1 9.712-17.307 15.066-11.206 5.23-25.525 5.23-24.53 0-36.98-13.074-12.45-13.2-12.45-37.852v-90.77h37.975v81.307q0 15.065 5.354 22.66 5.355 7.47 17.06 7.47 15.936 0 23.033-10.582 7.097-10.708 7.097-35.362v-65.493h37.977v139.204h-29.136zM1820.975 351.707H1783v-193.74h37.975v193.74z" style="-inkscape-font-specification:'Open Sans Bold'"/></g></svg>