<svg xmlns="http://www.w3.org/2000/svg" width="1185.412" height="377.087" viewBox="0 0 1185.4125 377.08749"><path d="M0 377.087h1185.417V.003H0v377.084z" fill="#fff"/><path d="M562.386 172.454h-5.172l-19.782-69.496c-1.64-5.71-2.87-10.39-3.69-14.048-.66 3.575-1.6 7.683-2.805 12.323-1.212 4.64-7.836 28.38-19.872 71.22h-5.3l-24.77-90.073h6.595l15.777 58.037c.612 2.34 1.19 4.508 1.722 6.5.53 1.99 1.016 3.86 1.448 5.606.43 1.744.822 3.43 1.17 5.055.354 1.62.67 3.252.954 4.897.987-5.586 3.084-14.07 6.285-25.448l15.4-54.647h6.965l18.05 62.72c2.095 7.23 3.598 13.06 4.498 17.494.53-2.954 1.22-6.1 2.064-9.424.843-3.326 7.176-26.924 19.008-70.79h6.345l-24.89 90.074M596.59 138.876c0 9.203 2.024 16.38 6.068 21.532 4.047 5.157 9.768 7.732 17.157 7.732 7.392 0 13.113-2.575 17.16-7.732 4.044-5.152 6.063-12.33 6.063-21.532 0-9.24-2.037-16.41-6.123-21.503-4.092-5.092-9.828-7.64-17.22-7.64-7.398 0-13.095 2.538-17.1 7.61-4.005 5.075-6.006 12.253-6.006 21.533zm52.86 0c0 10.928-2.647 19.46-7.945 25.6-5.3 6.14-12.61 9.21-21.936 9.21-5.872 0-11.053-1.417-15.523-4.25-4.482-2.836-7.914-6.903-10.293-12.2-2.382-5.296-3.573-11.417-3.573-18.36 0-10.924 2.647-19.436 7.948-25.537 5.3-6.1 12.567-9.152 21.81-9.152 9.198 0 16.422 3.093 21.66 9.273 5.238 6.185 7.85 14.657 7.85 25.416M745.356 172.454v-43.928c0-6.53-1.278-11.295-3.82-14.294-2.55-3-6.45-4.5-11.708-4.5-6.86 0-11.934 1.892-15.216 5.67-3.288 3.78-4.93 9.716-4.93 17.805v39.247h-6.224v-45.776c0-11.296-5.175-16.945-15.528-16.945-7.02 0-12.132 2.047-15.336 6.133-3.207 4.088-4.81 10.625-4.81 19.622v36.966h-6.095v-66.97h5.048l1.3 9.18h.365c1.85-3.327 4.473-5.904 7.884-7.733 3.408-1.825 7.17-2.742 11.274-2.742 10.558 0 17.338 3.965 20.335 11.893h.246c2.18-3.818 5.104-6.757 8.782-8.81 3.678-2.053 7.854-3.082 12.537-3.082 7.307 0 12.797 1.955 16.448 5.855 3.654 3.903 5.487 10.104 5.487 18.605v43.806h-6.04M793.29 109.612c-6.45 0-11.625 2.124-15.528 6.377-3.9 4.25-6.183 10.38-6.837 18.39h41.4c0-7.763-1.68-13.832-5.05-18.206-3.368-4.374-8.033-6.562-13.985-6.562zm1.785 64.073c-9.738 0-17.322-2.996-22.76-8.995-5.446-5.996-8.167-14.396-8.167-25.198 0-10.68 2.63-19.232 7.887-25.66 5.253-6.427 12.34-9.644 21.255-9.644 7.88 0 14.106 2.754 18.666 8.258 4.557 5.506 6.84 12.98 6.84 22.427v4.93h-48.24c.08 9.197 2.226 16.222 6.438 21.066 4.206 4.85 10.233 7.27 18.08 7.27 3.82 0 7.18-.265 10.075-.8 2.894-.533 6.563-1.684 10.997-3.45v5.545c-3.78 1.644-7.272 2.763-10.473 3.356-3.207.598-6.738.895-10.6.895M878.93 172.454v-43.436c0-6.735-1.412-11.632-4.25-14.693-2.835-3.06-7.23-4.592-13.182-4.592-8.01 0-13.875 2.025-17.592 6.072-3.714 4.045-5.574 10.607-5.574 19.683v36.966h-6.096v-66.97h5.17l1.175 9.18h.37c4.35-6.983 12.093-10.476 23.223-10.476 15.198 0 22.797 8.154 22.797 24.46v43.806h-6.04M514.09 298.63h-6.346v-84.16h-29.27v-5.912h64.877v5.913h-29.26v84.16M575.394 235.79c-6.447 0-11.625 2.123-15.528 6.376-3.903 4.252-6.183 10.383-6.837 18.39h41.4c0-7.762-1.684-13.83-5.053-18.204-3.37-4.374-8.03-6.562-13.983-6.562zm1.788 64.073c-9.738 0-17.328-2.996-22.764-8.995-5.445-5.994-8.17-14.394-8.17-25.2 0-10.678 2.632-19.232 7.89-25.66 5.254-6.426 12.34-9.642 21.256-9.642 7.884 0 14.106 2.754 18.666 8.257 4.557 5.506 6.84 12.98 6.84 22.425v4.93h-48.24c.078 9.2 2.226 16.226 6.438 21.07 4.206 4.85 10.233 7.27 18.084 7.27 3.816 0 7.176-.266 10.068-.8 2.898-.53 6.567-1.685 11-3.45v5.545c-3.78 1.644-7.27 2.762-10.472 3.357-3.207.594-6.738.893-10.596.893M641.08 299.863c-9.58 0-17.074-3.017-22.495-9.056-5.42-6.04-8.13-14.46-8.13-25.26 0-11.09 2.814-19.726 8.442-25.91 5.622-6.178 13.326-9.27 23.103-9.27 5.79 0 11.334 1.008 16.635 3.02l-1.668 5.423c-5.79-1.93-10.824-2.898-15.093-2.898-8.21 0-14.436 2.537-18.666 7.61-4.23 5.074-6.345 12.372-6.345 21.902 0 9.034 2.115 16.112 6.345 21.225 4.23 5.113 10.143 7.668 17.74 7.668 6.083 0 11.732-1.086 16.946-3.264v5.67c-4.272 2.094-9.88 3.14-16.815 3.14M718.455 298.63v-43.435c0-6.735-1.416-11.632-4.248-14.693-2.838-3.06-7.227-4.59-13.188-4.59-8.008 0-13.87 2.026-17.59 6.07-3.717 4.044-5.568 10.607-5.568 19.683v36.966h-6.105V202.77h6.105v30.495l-.315 8.563h.432c2.5-4.025 5.666-6.94 9.488-8.745 3.82-1.81 8.565-2.714 14.235-2.714 15.192 0 22.79 8.154 22.79 24.46v43.805h-6.038M822.276 298.63v-43.926c0-6.53-1.27-11.294-3.82-14.294-2.543-2.998-6.45-4.498-11.7-4.498-6.86 0-11.933 1.89-15.22 5.67-3.286 3.778-4.93 9.712-4.93 17.803v39.246h-6.22v-45.775c0-11.295-5.177-16.943-15.527-16.943-7.027 0-12.14 2.044-15.346 6.13-3.2 4.09-4.8 10.627-4.8 19.623v36.966h-6.102v-66.97h5.052l1.293 9.182h.37c1.85-3.327 4.478-5.904 7.886-7.735 3.41-1.824 7.167-2.74 11.274-2.74 10.56 0 17.334 3.964 20.33 11.893h.25c2.172-3.82 5.1-6.76 8.78-8.814 3.673-2.05 7.85-3.08 12.538-3.08 7.31 0 12.795 1.954 16.446 5.855 3.658 3.905 5.485 10.105 5.485 18.605v43.806h-6.04M860.98 294.318c7.145 0 12.782-2.043 16.907-6.128 4.125-4.088 6.192-9.767 6.192-17.036v-6.594l-11.707.494c-9.408.453-16.11 1.92-20.115 4.406-4.005 2.486-6.006 6.356-6.006 11.612 0 4.19 1.287 7.447 3.85 9.767 2.564 2.32 6.19 3.478 10.877 3.478zm24.638 4.313l-1.54-10.597h-.49c-3.373 4.315-6.83 7.365-10.38 9.15-3.556 1.787-7.76 2.68-12.598 2.68-6.58 0-11.694-1.682-15.345-5.05-3.657-3.367-5.484-8.03-5.484-13.986 0-6.532 2.722-11.604 8.167-15.22 5.44-3.613 13.314-5.523 23.628-5.728l12.75-.372v-4.434c0-6.366-1.296-11.174-3.88-14.418-2.588-3.244-6.758-4.866-12.51-4.866-6.2 0-12.626 1.725-19.286 5.175l-2.275-5.3c7.35-3.448 14.62-5.173 21.81-5.173 7.35 0 12.846 1.91 16.482 5.73 3.633 3.818 5.448 9.772 5.448 17.867v44.54h-4.497M912.732 269.243l34.197-37.582h7.388l-26.37 28.59 28.653 38.38h-7.334l-25.446-33.82-10.965 9.98v23.84h-6.096V202.77h6.095v48.056l-.435 18.42h.312M988.026 235.79c-6.45 0-11.622 2.123-15.522 6.376-3.903 4.252-6.186 10.383-6.843 18.39h41.407c0-7.762-1.69-13.83-5.055-18.204-3.366-4.374-8.03-6.562-13.986-6.562zm1.785 64.073c-9.73 0-17.318-2.996-22.76-8.995-5.445-5.994-8.17-14.394-8.17-25.2 0-10.678 2.632-19.232 7.89-25.66 5.26-6.426 12.343-9.642 21.256-9.642 7.887 0 14.11 2.754 18.672 8.257 4.557 5.506 6.837 12.98 6.837 22.425v4.93h-48.243c.078 9.2 2.23 16.226 6.438 21.07 4.21 4.85 10.24 7.27 18.08 7.27 3.823 0 7.183-.266 10.078-.8 2.895-.53 6.56-1.685 10.998-3.45v5.545c-3.78 1.644-7.27 2.762-10.476 3.357-3.204.594-6.74.893-10.6.893M1053.34 230.366c2.834 0 5.873.29 9.116.864l-1.167 5.853a35.754 35.754 0 0 0-8.692-1.048c-5.71 0-10.392 2.425-14.052 7.27-3.648 4.85-5.475 10.97-5.475 18.36v36.966h-6.1v-66.97h5.177l.615 12.075h.43c2.75-4.925 5.687-8.387 8.813-10.38 3.12-1.99 6.9-2.99 11.334-2.99M1112.547 281.198c0 5.995-2.28 10.606-6.837 13.833-4.56 3.224-11.025 4.833-19.407 4.833-8.955 0-16.06-1.376-21.318-4.127v-6.592c6.732 3.368 13.842 5.052 21.318 5.052 6.612 0 11.634-1.097 15.06-3.296 3.435-2.196 5.15-5.124 5.15-8.78 0-3.368-1.367-6.203-4.094-8.5-2.737-2.3-7.228-4.562-13.468-6.78-6.7-2.422-11.394-4.505-14.106-6.252-2.71-1.746-4.755-3.717-6.132-5.917-1.374-2.193-2.064-4.875-2.064-8.037 0-5.012 2.106-8.973 6.312-11.892 4.215-2.913 10.095-4.374 17.655-4.374 7.227 0 14.088 1.355 20.577 4.07l-2.283 5.543c-6.566-2.712-12.665-4.068-18.293-4.068-5.463 0-9.795.903-13.005 2.71-3.198 1.81-4.8 4.314-4.8 7.518 0 3.49 1.242 6.285 3.726 8.38 2.487 2.094 7.34 4.434 14.568 7.023 6.04 2.177 10.437 4.138 13.188 5.883 2.75 1.745 4.818 3.728 6.19 5.947 1.376 2.216 2.063 4.826 2.063 7.825" fill="#666"/><path d="M130.332 265.838h47.61v-154.59h-47.61v154.59z" fill="#4285f4"/><path d="M272.775 265.838h47.894v-154.59h-47.895v154.59z" fill="#00bfa5"/><path d="M273.057 265.838h47.613L249.457 134.67h-47.624l71.224 131.168" fill="#1ce9b6"/><path d="M177.944 265.838H130.33l71.22-131.167h47.61L177.945 265.84" fill="#4fc3f7"/><path d="M102.328 289.292V88.344h52.113V57.888H83.843c-6.605 0-12.014 5.406-12.014 12.018v236.013c0 6.61 5.41 13.285 12.014 13.285h70.6v-29.913h-52.114" fill="#4285f4"/><path d="M348.67 289.292V88.344h-52.115V57.888h70.6c6.606 0 12.02 5.406 12.02 12.018v236.013c0 6.61-5.414 13.285-12.02 13.285h-70.6v-29.913h52.114" fill="#00bfa5"/></svg>