<?xml version="1.0" encoding="UTF-8" standalone="no"?>
<!-- Created with Inkscape (http://www.inkscape.org/) -->

<svg
   xmlns:dc="http://purl.org/dc/elements/1.1/"
   xmlns:cc="http://creativecommons.org/ns#"
   xmlns:rdf="http://www.w3.org/1999/02/22-rdf-syntax-ns#"
   xmlns:svg="http://www.w3.org/2000/svg"
   xmlns="http://www.w3.org/2000/svg"
   xmlns:sodipodi="http://sodipodi.sourceforge.net/DTD/sodipodi-0.dtd"
   xmlns:inkscape="http://www.inkscape.org/namespaces/inkscape"
   id="svg4225"
   version="1.1"
   inkscape:version="0.91 r13725"
   xml:space="preserve"
   width="1185.4125"
   height="377.08749"
   viewBox="0 0 1185.4125 377.08749"
   sodipodi:docname="logo-white.svg"><metadata
     id="metadata4231"><rdf:RDF><cc:Work
         rdf:about=""><dc:format>image/svg+xml</dc:format><dc:type
           rdf:resource="http://purl.org/dc/dcmitype/StillImage" /><dc:title></dc:title></cc:Work></rdf:RDF></metadata><defs
     id="defs4229" /><sodipodi:namedview
     pagecolor="#ffffff"
     bordercolor="#666666"
     borderopacity="1"
     objecttolerance="10"
     gridtolerance="10"
     guidetolerance="10"
     inkscape:pageopacity="0"
     inkscape:pageshadow="2"
     inkscape:window-width="1366"
     inkscape:window-height="719"
     id="namedview4227"
     showgrid="false"
     inkscape:zoom="0.58207587"
     inkscape:cx="624.24336"
     inkscape:cy="171.53081"
     inkscape:window-x="0"
     inkscape:window-y="1"
     inkscape:window-maximized="1"
     inkscape:current-layer="g4233" /><g
     id="g4233"
     inkscape:groupmode="layer"
     inkscape:label="WT_logo_2lines_pos"
     transform="matrix(1.25,0,0,-1.25,0,377.0875)"><path
       inkscape:connector-curvature="0"
       id="path4239"
       style="fill:#ffffff;fill-opacity:1;fill-rule:nonzero;stroke:none"
       d="m 449.9088,163.70712 -4.1376,0 -15.8256,55.59672 c -1.3128,4.56744 -2.2968,8.31264 -2.952,11.23776 -0.528,-2.85936 -1.2792,-6.1464 -2.244,-9.85776 -0.9696,-3.71256 -6.2688,-22.70544 -15.8976,-56.97672 l -4.2408,0 -19.8144,72.05904 5.2752,0 12.6216,-46.42968 c 0.4896,-1.87128 0.9528,-3.60648 1.3776,-5.20032 0.4248,-1.59264 0.8136,-3.08808 1.1592,-4.48488 0.3432,-1.39512 0.6576,-2.7432 0.936,-4.04352 0.2832,-1.29552 0.5352,-2.6016 0.7632,-3.91776 0.7896,4.46904 2.4672,11.2548 5.028,20.35872 l 12.3192,43.71744 5.5728,0 14.4408,-50.17584 c 1.6752,-5.78352 2.8776,-10.4484 3.5976,-13.99584 0.4248,2.36328 0.9768,4.87968 1.6512,7.53936 0.6744,2.66064 5.7408,21.53904 15.2064,56.63232 l 5.076,0 -19.9128,-72.05904" /><path
       inkscape:connector-curvature="0"
       id="path4241"
       style="fill:#ffffff;fill-opacity:1;fill-rule:nonzero;stroke:none"
       d="m 477.2712,190.56936 c 0,-7.36224 1.62,-13.10424 4.8552,-17.22552 3.2376,-4.12608 7.8144,-6.18576 13.7256,-6.18576 5.9136,0 10.4904,2.05968 13.728,6.18576 3.2352,4.12128 4.8504,9.86328 4.8504,17.22552 0,7.39128 -1.6296,13.1268 -4.8984,17.20224 -3.2736,4.07352 -7.8624,6.1116 -13.776,6.1116 -5.9184,0 -10.476,-2.02968 -13.68,-6.08808 -3.204,-4.0596 -4.8048,-9.8016 -4.8048,-17.22576 z m 42.288,0 c 0,-8.74224 -2.1168,-15.56808 -6.3552,-20.48064 -4.2408,-4.9116 -10.0872,-7.3668 -17.5488,-7.3668 -4.6968,0 -8.8416,1.13256 -12.4176,3.40032 -3.5856,2.26776 -6.3312,5.52096 -8.2344,9.75936 -1.9056,4.23648 -2.8584,9.1332 -2.8584,14.68776 0,8.73936 2.1168,15.5484 6.3576,20.42904 4.2408,4.87968 10.0536,7.32096 17.448,7.32096 7.3584,0 13.1376,-2.47416 17.328,-7.4184 4.1904,-4.94712 6.2808,-11.72448 6.2808,-20.3316" /><path
       inkscape:connector-curvature="0"
       id="path4243"
       style="fill:#ffffff;fill-opacity:1;fill-rule:nonzero;stroke:none"
       d="m 596.2848,163.70712 0,35.14224 c 0,5.22384 -1.0224,9.03576 -3.0552,11.4348 -2.04,2.4 -5.16,3.59904 -9.3672,3.59904 -5.4888,0 -9.5472,-1.51224 -12.1728,-4.53576 -2.6304,-3.02328 -3.9432,-7.77192 -3.9432,-14.24328 l 0,-31.39704 -4.98,0 0,36.62064 c 0,9.03672 -4.14,13.55544 -12.4224,13.55544 -5.616,0 -9.7056,-1.63704 -12.2688,-4.90608 -2.5656,-3.27 -3.8472,-8.50032 -3.8472,-15.69744 l 0,-29.57256 -4.8768,0 0,53.5764 4.0392,0 1.0392,-7.34448 0.2928,0 c 1.4808,2.6616 3.5784,4.7232 6.3072,6.18576 2.7264,1.46136 5.736,2.19456 9.0192,2.19456 8.4456,0 13.8696,-3.1716 16.2672,-9.51456 l 0.1968,0 c 1.7424,3.0552 4.0824,5.40648 7.0248,7.05 2.9424,1.64136 6.2832,2.46456 10.0296,2.46456 5.8464,0 10.2384,-1.56384 13.1592,-4.68384 2.9232,-3.12264 4.3896,-8.08296 4.3896,-14.8836 l 0,-35.0448 -4.8312,0" /><path
       inkscape:connector-curvature="0"
       id="path4245"
       style="fill:#ffffff;fill-opacity:1;fill-rule:nonzero;stroke:none"
       d="m 634.632,213.98064 c -5.16,0 -9.3,-1.69968 -12.4224,-5.10192 -3.12,-3.40032 -4.9464,-8.3052 -5.4696,-14.7132 l 33.12,0 c 0,6.21096 -1.344,11.0664 -4.0392,14.56512 -2.6952,3.49968 -6.4272,5.25 -11.1888,5.25 z m 1.428,-51.25872 c -7.7904,0 -13.8576,2.39712 -18.2088,7.19616 -4.356,4.7964 -6.5328,11.5164 -6.5328,20.15808 0,8.54352 2.1048,15.38544 6.3096,20.52936 4.2024,5.14032 9.8712,7.71384 17.004,7.71384 6.3048,0 11.2848,-2.2032 14.9328,-6.60648 3.6456,-4.40448 5.472,-10.38384 5.472,-17.94096 l 0,-3.9432 -38.592,0 c 0.0648,-7.3584 1.7808,-12.97872 5.1504,-16.85424 3.3648,-3.87936 8.1864,-5.8164 14.4648,-5.8164 3.0552,0 5.7432,0.21192 8.0592,0.64032 2.316,0.42576 5.2512,1.34712 8.7984,2.76 l 0,-4.43616 c -3.024,-1.31544 -5.8176,-2.21064 -8.3784,-2.68512 -2.5656,-0.47712 -5.3904,-0.7152 -8.4792,-0.7152" /><path
       inkscape:connector-curvature="0"
       id="path4247"
       style="fill:#ffffff;fill-opacity:1;fill-rule:nonzero;stroke:none"
       d="m 703.1448,163.70712 0,34.7484 c 0,5.388 -1.1304,9.30576 -3.4008,11.75448 -2.268,2.44776 -5.784,3.6732 -10.5456,3.6732 -6.408,0 -11.1,-1.62 -14.0736,-4.85736 -2.9712,-3.23616 -4.4592,-8.4852 -4.4592,-15.74616 l 0,-29.57256 -4.8768,0 0,53.5764 4.1352,0 0.9408,-7.34448 0.2952,0 c 3.48,5.58576 9.6744,8.38032 18.5784,8.38032 12.1584,0 18.2376,-6.5232 18.2376,-19.56744 l 0,-35.0448 -4.8312,0" /><path
       inkscape:connector-curvature="0"
       id="path4249"
       style="fill:#ffffff;fill-opacity:1;fill-rule:nonzero;stroke:none"
       d="m 411.2712,62.7648 -5.076,0 0,67.3284 -23.4168,0 0,4.73064 51.9024,0 0,-4.73064 -23.4096,0 0,-67.3284" /><path
       inkscape:connector-curvature="0"
       id="path4251"
       style="fill:#ffffff;fill-opacity:1;fill-rule:nonzero;stroke:none"
       d="m 460.3152,113.03808 c -5.1576,0 -9.3,-1.69872 -12.4224,-5.10096 -3.1224,-3.40128 -4.9464,-8.30616 -5.4696,-14.71296 l 33.12,0 c 0,6.21096 -1.3464,11.0652 -4.0416,14.56392 -2.6952,3.49968 -6.4248,5.25 -11.1864,5.25 z m 1.4304,-51.25872 c -7.7904,0 -13.8624,2.39712 -18.2112,7.19616 -4.356,4.79544 -6.5352,11.51544 -6.5352,20.15928 0,8.54328 2.1048,15.38616 6.312,20.5284 4.2024,5.14128 9.8712,7.7136 17.004,7.7136 6.3072,0 11.2848,-2.20296 14.9328,-6.60552 3.6456,-4.40448 5.472,-10.3848 5.472,-17.94 l 0,-3.94416 -38.592,0 c 0.0624,-7.36032 1.7808,-12.98064 5.1504,-16.85616 3.3648,-3.87936 8.1864,-5.81544 14.4672,-5.81544 3.0528,0 5.7408,0.21288 8.0544,0.6396 2.3184,0.42552 5.2536,1.34808 8.8008,2.76072 l 0,-4.43616 c -3.024,-1.3152 -5.8176,-2.20968 -8.3784,-2.68584 -2.5656,-0.47544 -5.3904,-0.71448 -8.4768,-0.71448" /><path
       inkscape:connector-curvature="0"
       id="path4253"
       style="fill:#ffffff;fill-opacity:1;fill-rule:nonzero;stroke:none"
       d="m 512.8632,61.77936 c -7.6632,0 -13.6584,2.41416 -17.9952,7.24512 -4.3368,4.83072 -6.504,11.5668 -6.504,20.2068 0,8.87256 2.2512,15.78192 6.7536,20.72808 4.4976,4.94352 10.6608,7.41744 18.4824,7.41744 4.632,0 9.0672,-0.80712 13.308,-2.41584 l -1.3344,-4.33872 c -4.632,1.54488 -8.6592,2.3184 -12.0744,2.3184 -6.5688,0 -11.5488,-2.02968 -14.9328,-6.08712 -3.384,-4.06032 -5.076,-9.89904 -5.076,-17.52288 0,-7.22712 1.692,-12.88968 5.076,-16.98 3.384,-4.09128 8.1144,-6.13512 14.1912,-6.13512 4.8672,0 9.3864,0.86928 13.5576,2.61096 l 0,-4.53456 c -3.4176,-1.6764 -7.9032,-2.51256 -13.452,-2.51256" /><path
       inkscape:connector-curvature="0"
       id="path4255"
       style="fill:#ffffff;fill-opacity:1;fill-rule:nonzero;stroke:none"
       d="m 574.764,62.7648 0,34.74936 c 0,5.38776 -1.1328,9.30552 -3.3984,11.75424 -2.2704,2.44776 -5.7816,3.67224 -10.5504,3.67224 -6.4056,0 -11.0952,-1.62096 -14.0712,-4.85616 -2.9736,-3.23544 -4.4544,-8.48544 -4.4544,-15.7464 l 0,-29.57328 -4.884,0 0,76.69104 4.884,0 0,-24.39648 -0.252,-6.85032 0.3456,0 c 2.0016,3.22032 4.5336,5.55288 7.5912,6.99648 3.0552,1.44768 6.852,2.17128 11.388,2.17128 12.1536,0 18.2328,-6.52296 18.2328,-19.56648 l 0,-35.04552 -4.8312,0" /><path
       inkscape:connector-curvature="0"
       id="path4257"
       style="fill:#ffffff;fill-opacity:1;fill-rule:nonzero;stroke:none"
       d="m 657.8208,62.7648 0,35.142 c 0,5.22384 -1.0152,9.0348 -3.0552,11.4348 -2.0352,2.39904 -5.16,3.59904 -9.36,3.59904 -5.4888,0 -9.5472,-1.51128 -12.1776,-4.53552 -2.628,-3.02352 -3.9432,-7.77 -3.9432,-14.24352 l 0,-31.3968 -4.9752,0 0,36.62136 c 0,9.03576 -4.1424,13.55448 -12.4224,13.55448 -5.6208,0 -9.7104,-1.63584 -12.276,-4.90512 -2.5608,-3.27072 -3.84,-8.50104 -3.84,-15.69744 l 0,-29.57328 -4.8816,0 0,53.57616 4.0416,0 1.0344,-7.34448 0.2952,0 c 1.4808,2.6616 3.5832,4.7232 6.3096,6.18768 2.7288,1.45968 5.7336,2.19264 9.0192,2.19264 8.448,0 13.8672,-3.1716 16.2648,-9.51456 l 0.1992,0 c 1.7376,3.05616 4.08,5.40744 7.0248,7.05096 2.9376,1.64064 6.2784,2.4636 10.0296,2.4636 5.8488,0 10.236,-1.56264 13.1568,-4.6836 2.9256,-3.12288 4.3872,-8.0832 4.3872,-14.88288 l 0,-35.04552 -4.8312,0" /><path
       inkscape:connector-curvature="0"
       id="path4259"
       style="fill:#ffffff;fill-opacity:1;fill-rule:nonzero;stroke:none"
       d="m 688.7832,66.21552 c 5.7168,0 10.2264,1.63416 13.5264,4.90224 3.3,3.27096 4.9536,7.81416 4.9536,13.62936 l 0,5.27448 -9.3648,-0.3948 c -7.5264,-0.36264 -12.888,-1.53648 -16.092,-3.52488 -3.204,-1.9884 -4.8048,-5.08512 -4.8048,-9.28968 0,-3.35256 1.0296,-5.95776 3.0792,-7.8132 2.052,-1.85616 4.9536,-2.78352 8.7024,-2.78352 z m 19.7112,-3.45072 -1.2312,8.47872 -0.3936,0 c -2.6976,-3.45192 -5.4624,-5.89224 -8.304,-7.32 -2.844,-1.42968 -6.2064,-2.14416 -10.0776,-2.14416 -5.2632,0 -9.3552,1.34544 -12.276,4.04064 -2.9256,2.69352 -4.3872,6.42384 -4.3872,11.18808 0,5.22576 2.1768,9.2832 6.5328,12.17544 4.3512,2.89128 10.6512,4.41936 18.9024,4.58328 l 10.2,0.2964 0,3.54744 c 0,5.09256 -1.0368,8.93904 -3.1032,11.53488 -2.0712,2.59512 -5.4072,3.89256 -10.008,3.89256 -4.9608,0 -10.1016,-1.38 -15.4296,-4.14 L 677.1,113.1384 c 5.88,2.75808 11.6952,4.13808 17.448,4.13808 5.88,0 10.2768,-1.52712 13.1856,-4.58328 2.9064,-3.05544 4.3584,-7.81872 4.3584,-14.29416 l 0,-35.63424 -3.5976,0" /><path
       inkscape:connector-curvature="0"
       id="path4261"
       style="fill:#ffffff;fill-opacity:1;fill-rule:nonzero;stroke:none"
       d="m 730.1856,86.2752 27.3576,30.06576 5.9112,0 -21.096,-22.87032 22.9224,-30.70584 -5.868,0 -20.3568,27.05808 -8.772,-7.98384 0,-19.07424 -4.8768,0 0,76.69104 4.8768,0 0,-38.44488 -0.348,-14.73576 0.2496,0" /><path
       inkscape:connector-curvature="0"
       id="path4263"
       style="fill:#ffffff;fill-opacity:1;fill-rule:nonzero;stroke:none"
       d="m 790.4208,113.03808 c -5.16,0 -9.2976,-1.69872 -12.4176,-5.10096 -3.1224,-3.40128 -4.9488,-8.30616 -5.4744,-14.71296 l 33.1248,0 c 0,6.21096 -1.3512,11.0652 -4.044,14.56392 -2.6928,3.49968 -6.4248,5.25 -11.1888,5.25 z m 1.428,-51.25872 c -7.7856,0 -13.8552,2.39712 -18.2088,7.19616 -4.356,4.79544 -6.5352,11.51544 -6.5352,20.15928 0,8.54328 2.1048,15.38616 6.312,20.5284 4.2072,5.14128 9.8736,7.7136 17.004,7.7136 6.3096,0 11.2872,-2.20296 14.9376,-6.60552 3.6456,-4.40448 5.4696,-10.3848 5.4696,-17.94 l 0,-3.94416 -38.5944,0 c 0.0624,-7.36032 1.7832,-12.98064 5.1504,-16.85616 3.3672,-3.87936 8.1912,-5.81544 14.4648,-5.81544 3.0576,0 5.7456,0.21288 8.0616,0.6396 2.316,0.42552 5.2488,1.34808 8.7984,2.76072 l 0,-4.43616 c -3.024,-1.3152 -5.8152,-2.20968 -8.3808,-2.68584 -2.5632,-0.47544 -5.3928,-0.71448 -8.4792,-0.71448" /><path
       inkscape:connector-curvature="0"
       id="path4265"
       style="fill:#ffffff;fill-opacity:1;fill-rule:nonzero;stroke:none"
       d="m 842.6712,117.3768 c 2.268,0 4.6992,-0.23064 7.2936,-0.69096 l -0.9336,-4.68264 c -2.2392,0.55872 -4.5552,0.83904 -6.9528,0.83904 -4.5672,0 -8.3136,-1.94064 -11.2416,-5.81712 -2.9184,-3.87864 -4.38,-8.77416 -4.38,-14.68704 l 0,-29.57328 -4.8816,0 0,53.57616 4.1424,0 0.492,-9.65904 0.3432,0 c 2.2008,3.94032 4.5504,6.70968 7.0512,8.30424 2.496,1.59288 5.52,2.39064 9.0672,2.39064" /><path
       inkscape:connector-curvature="0"
       id="path4267"
       style="fill:#ffffff;fill-opacity:1;fill-rule:nonzero;stroke:none"
       d="m 890.0376,76.71192 c 0,-4.7964 -1.824,-8.48544 -5.4696,-11.0664 -3.648,-2.57904 -8.82,-3.86616 -15.5256,-3.86616 -7.164,0 -12.8472,1.10064 -17.0544,3.30192 l 0,5.27352 c 5.3856,-2.69448 11.0736,-4.0416 17.0544,-4.0416 5.2896,0 9.3072,0.87744 12.048,2.63712 2.748,1.7568 4.1208,4.09872 4.1208,7.0248 0,2.69328 -1.0944,4.96104 -3.276,6.79968 -2.1888,1.84032 -5.7816,3.64872 -10.7736,5.42328 -5.3592,1.93776 -9.1152,3.60384 -11.2848,5.0016 -2.1672,1.3968 -3.804,2.97384 -4.9056,4.73352 -1.0992,1.75488 -1.6512,3.90096 -1.6512,6.43032 0,4.00968 1.6848,7.1784 5.0496,9.5136 3.372,2.3316 8.076,3.49968 14.124,3.49968 5.7816,0 11.2704,-1.0836 16.4616,-3.25488 l -1.8264,-4.43544 c -5.2536,2.16936 -10.1328,3.25416 -14.6352,3.25416 -4.3704,0 -7.836,-0.72288 -10.404,-2.16936 -2.5584,-1.44576 -3.84,-3.45 -3.84,-6.0132 0,-2.79192 0.9936,-5.02776 2.9808,-6.70296 1.9896,-1.6764 5.8728,-3.54864 11.6544,-5.6196 4.8312,-1.74168 8.3496,-3.31032 10.5504,-4.70616 2.2008,-1.39584 3.8544,-2.98224 4.9512,-4.75776 1.1016,-1.77288 1.6512,-3.86064 1.6512,-6.25968" /><path
       inkscape:connector-curvature="0"
       id="path4269"
       style="fill:#ffffff;fill-opacity:1;fill-rule:nonzero;stroke:none"
       d="m 104.26584,88.99968 38.08872,0 0,123.67224 -38.08872,0 0,-123.67224 z" /><path
       inkscape:connector-curvature="0"
       id="path4271"
       style="fill:#ffffff;fill-opacity:1;fill-rule:nonzero;stroke:none"
       d="m 218.22,88.99968 38.31552,0 0,123.67224 -38.31552,0 0,-123.67224 z" /><path
       inkscape:connector-curvature="0"
       id="path4273"
       style="fill:#ffffff;fill-opacity:1;fill-rule:nonzero;stroke:none"
       d="m 218.44584,88.99968 38.09016,0 -56.97048,104.93352 -38.09904,0 56.97936,-104.93352" /><path
       inkscape:connector-curvature="0"
       id="path4275"
       style="fill:#ffffff;fill-opacity:1;fill-rule:nonzero;stroke:none"
       d="m 142.3548,88.99968 -38.08896,0 56.9748,104.93352 38.08968,0 L 142.3548,88.99968" /><path
       inkscape:connector-curvature="0"
       id="path4277"
       style="fill:#ffffff;fill-opacity:1;fill-rule:nonzero;stroke:none"
       d="m 81.86256,70.23648 0,160.75872 41.69064,0 0,24.3648 -56.47968,0 c -5.28384,0 -9.61128,-4.3248 -9.61128,-9.6144 l 0,-188.81112 c 0,-5.28936 4.32744,-10.62864 9.61128,-10.62864 l 56.47968,0 0,23.93064 -41.69064,0" /><path
       inkscape:connector-curvature="0"
       id="path4279"
       style="fill:#ffffff;fill-opacity:1;fill-rule:nonzero;stroke:none"
       d="m 278.9352,70.23648 0,160.75872 -41.69136,0 0,24.3648 56.48016,0 c 5.2848,0 9.6168,-4.3248 9.6168,-9.6144 l 0,-188.81112 c 0,-5.28936 -4.332,-10.62864 -9.6168,-10.62864 l -56.48016,0 0,23.93064 41.69136,0" /></g></svg>