<?xml version="1.0" encoding="UTF-8" standalone="no"?>
<!-- Created with Inkscape (http://www.inkscape.org/) -->

<svg
   xmlns:dc="http://purl.org/dc/elements/1.1/"
   xmlns:cc="http://creativecommons.org/ns#"
   xmlns:rdf="http://www.w3.org/1999/02/22-rdf-syntax-ns#"
   xmlns:svg="http://www.w3.org/2000/svg"
   xmlns="http://www.w3.org/2000/svg"
   xmlns:sodipodi="http://sodipodi.sourceforge.net/DTD/sodipodi-0.dtd"
   xmlns:inkscape="http://www.inkscape.org/namespaces/inkscape"
   id="svg4225"
   version="1.1"
   inkscape:version="0.91 r13725"
   xml:space="preserve"
   width="1185.4125"
   height="377.08749"
   viewBox="0 0 1185.4125 377.08749"
   sodipodi:docname="logo.svg"><metadata
     id="metadata4231"><rdf:RDF><cc:Work
         rdf:about=""><dc:format>image/svg+xml</dc:format><dc:type
           rdf:resource="http://purl.org/dc/dcmitype/StillImage" /><dc:title></dc:title></cc:Work></rdf:RDF></metadata><defs
     id="defs4229" /><sodipodi:namedview
     pagecolor="#ffffff"
     bordercolor="#666666"
     borderopacity="1"
     objecttolerance="10"
     gridtolerance="10"
     guidetolerance="10"
     inkscape:pageopacity="0"
     inkscape:pageshadow="2"
     inkscape:window-width="1366"
     inkscape:window-height="719"
     id="namedview4227"
     showgrid="false"
     inkscape:zoom="0.58207587"
     inkscape:cx="592.70624"
     inkscape:cy="188.54375"
     inkscape:window-x="0"
     inkscape:window-y="1"
     inkscape:window-maximized="1"
     inkscape:current-layer="g4233" /><g
     id="g4233"
     inkscape:groupmode="layer"
     inkscape:label="WT_logo_2lines_pos"
     transform="matrix(1.25,0,0,-1.25,0,377.0875)"><g
       id="g4235"
       transform="scale(0.24,0.24)"><path
         d="m 0,0 3951.39,0 0,1256.95 L 0,1256.95 0,0 Z"
         style="fill:#ffffff;fill-opacity:1;fill-rule:nonzero;stroke:none"
         id="path4237"
         inkscape:connector-curvature="0" /><path
         d="m 1874.62,682.113 -17.24,0 -65.94,231.653 c -5.47,19.031 -9.57,34.636 -12.3,46.824 -2.2,-11.914 -5.33,-25.61 -9.35,-41.074 -4.04,-15.469 -26.12,-94.606 -66.24,-237.403 l -17.67,0 -82.56,300.246 21.98,0 52.59,-193.457 c 2.04,-7.797 3.97,-15.027 5.74,-21.668 1.77,-6.636 3.39,-12.867 4.83,-18.687 1.43,-5.813 2.74,-11.43 3.9,-16.848 1.18,-5.398 2.23,-10.84 3.18,-16.324 3.29,18.621 10.28,46.895 20.95,84.828 l 51.33,182.156 23.22,0 60.17,-209.066 c 6.98,-24.098 11.99,-43.535 14.99,-58.316 1.77,9.847 4.07,20.332 6.88,31.414 2.81,11.086 23.92,89.746 63.36,235.968 l 21.15,0 -82.97,-300.246"
         style="fill:#666666;fill-opacity:1;fill-rule:nonzero;stroke:none"
         id="path4239"
         inkscape:connector-curvature="0" /><path
         d="m 1988.63,794.039 c 0,-30.676 6.75,-54.601 20.23,-71.773 13.49,-17.192 32.56,-25.774 57.19,-25.774 24.64,0 43.71,8.582 57.2,25.774 13.48,17.172 20.21,41.097 20.21,71.773 0,30.797 -6.79,54.695 -20.41,71.676 -13.64,16.973 -32.76,25.465 -57.4,25.465 -24.66,0 -43.65,-8.457 -57,-25.367 -13.35,-16.915 -20.02,-40.84 -20.02,-71.774 z m 176.2,0 c 0,-36.426 -8.82,-64.867 -26.48,-85.336 -17.67,-20.465 -42.03,-30.695 -73.12,-30.695 -19.57,0 -36.84,4.719 -51.74,14.168 -14.94,9.449 -26.38,23.004 -34.31,40.664 -7.94,17.652 -11.91,38.055 -11.91,61.199 0,36.414 8.82,64.785 26.49,85.121 17.67,20.332 41.89,30.504 72.7,30.504 30.66,0 54.74,-10.309 72.2,-30.91 17.46,-20.613 26.17,-48.852 26.17,-84.715"
         style="fill:#666666;fill-opacity:1;fill-rule:nonzero;stroke:none"
         id="path4241"
         inkscape:connector-curvature="0" /><path
         d="m 2484.52,682.113 0,146.426 c 0,21.766 -4.26,37.649 -12.73,47.645 -8.5,10 -21.5,14.996 -39.03,14.996 -22.87,0 -39.78,-6.301 -50.72,-18.899 -10.96,-12.597 -16.43,-32.383 -16.43,-59.347 l 0,-130.821 -20.75,0 0,152.586 c 0,37.653 -17.25,56.481 -51.76,56.481 -23.4,0 -40.44,-6.821 -51.12,-20.442 -10.69,-13.625 -16.03,-35.418 -16.03,-65.406 l 0,-123.219 -20.32,0 0,223.235 16.83,0 4.33,-30.602 1.22,0 c 6.17,11.09 14.91,19.68 26.28,25.774 11.36,6.089 23.9,9.144 37.58,9.144 35.19,0 57.79,-13.215 67.78,-39.644 l 0.82,0 c 7.26,12.73 17.01,22.527 29.27,29.375 12.26,6.839 26.18,10.269 41.79,10.269 24.36,0 42.66,-6.516 54.83,-19.516 12.18,-13.011 18.29,-33.679 18.29,-62.015 l 0,-146.02 -20.13,0"
         style="fill:#666666;fill-opacity:1;fill-rule:nonzero;stroke:none"
         id="path4243"
         inkscape:connector-curvature="0" /><path
         d="m 2644.3,891.586 c -21.5,0 -38.75,-7.082 -51.76,-21.258 -13,-14.168 -20.61,-34.605 -22.79,-61.305 l 138,0 c 0,25.879 -5.6,46.11 -16.83,60.688 -11.23,14.582 -26.78,21.875 -46.62,21.875 z m 5.95,-213.578 c -32.46,0 -57.74,9.988 -75.87,29.984 -18.15,19.985 -27.22,47.985 -27.22,83.992 0,35.598 8.77,64.106 26.29,85.539 17.51,21.418 41.13,32.141 70.85,32.141 26.27,0 47.02,-9.18 62.22,-27.527 15.19,-18.352 22.8,-43.266 22.8,-74.754 l 0,-16.43 -160.8,0 c 0.27,-30.66 7.42,-54.078 21.46,-70.226 14.02,-16.164 34.11,-24.235 60.27,-24.235 12.73,0 23.93,0.883 33.58,2.668 9.65,1.774 21.88,5.613 36.66,11.5 l 0,-18.484 c -12.6,-5.481 -24.24,-9.211 -34.91,-11.188 -10.69,-1.988 -22.46,-2.98 -35.33,-2.98"
         style="fill:#666666;fill-opacity:1;fill-rule:nonzero;stroke:none"
         id="path4245"
         inkscape:connector-curvature="0" /><path
         d="m 2929.77,682.113 0,144.785 c 0,22.45 -4.71,38.774 -14.17,48.977 -9.45,10.199 -24.1,15.305 -43.94,15.305 -26.7,0 -46.25,-6.75 -58.64,-20.239 -12.38,-13.484 -18.58,-35.355 -18.58,-65.609 l 0,-123.219 -20.32,0 0,223.235 17.23,0 3.92,-30.602 1.23,0 c 14.5,23.274 40.31,34.918 77.41,34.918 50.66,0 75.99,-27.18 75.99,-81.531 l 0,-146.02 -20.13,0"
         style="fill:#666666;fill-opacity:1;fill-rule:nonzero;stroke:none"
         id="path4247"
         inkscape:connector-curvature="0" /><path
         d="m 1713.63,261.52 -21.15,0 0,280.535 -97.57,0 0,19.711 216.26,0 0,-19.711 -97.54,0 0,-280.535"
         style="fill:#666666;fill-opacity:1;fill-rule:nonzero;stroke:none"
         id="path4249"
         inkscape:connector-curvature="0" /><path
         d="m 1917.98,470.992 c -21.49,0 -38.75,-7.078 -51.76,-21.254 -13.01,-14.172 -20.61,-34.609 -22.79,-61.304 l 138,0 c 0,25.879 -5.61,46.105 -16.84,60.683 -11.23,14.582 -26.77,21.875 -46.61,21.875 z m 5.96,-213.578 c -32.46,0 -57.76,9.988 -75.88,29.984 -18.15,19.981 -27.23,47.981 -27.23,83.997 0,35.597 8.77,64.109 26.3,85.535 17.51,21.422 41.13,32.14 70.85,32.14 26.28,0 47.02,-9.179 62.22,-27.523 15.19,-18.352 22.8,-43.27 22.8,-74.75 l 0,-16.434 -160.8,0 c 0.26,-30.668 7.42,-54.086 21.46,-70.234 14.02,-16.164 34.11,-24.231 60.28,-24.231 12.72,0 23.92,0.887 33.56,2.665 9.66,1.773 21.89,5.617 36.67,11.503 l 0,-18.484 c -12.6,-5.48 -24.24,-9.207 -34.91,-11.191 -10.69,-1.981 -22.46,-2.977 -35.32,-2.977"
         style="fill:#666666;fill-opacity:1;fill-rule:nonzero;stroke:none"
         id="path4251"
         inkscape:connector-curvature="0" /><path
         d="m 2136.93,257.414 c -31.93,0 -56.91,10.059 -74.98,30.188 -18.07,20.128 -27.1,48.195 -27.1,84.195 0,36.969 9.38,65.758 28.14,86.367 18.74,20.598 44.42,30.906 77.01,30.906 19.3,0 37.78,-3.363 55.45,-10.066 l -5.56,-18.078 c -19.3,6.437 -36.08,9.66 -50.31,9.66 -27.37,0 -48.12,-8.457 -62.22,-25.363 -14.1,-16.918 -21.15,-41.246 -21.15,-73.012 0,-30.113 7.05,-53.707 21.15,-70.75 14.1,-17.047 33.81,-25.563 59.13,-25.563 20.28,0 39.11,3.622 56.49,10.879 l 0,-18.894 c -14.24,-6.985 -32.93,-10.469 -56.05,-10.469"
         style="fill:#666666;fill-opacity:1;fill-rule:nonzero;stroke:none"
         id="path4253"
         inkscape:connector-curvature="0" /><path
         d="m 2394.85,261.52 0,144.789 c 0,22.449 -4.72,38.773 -14.16,48.976 -9.46,10.199 -24.09,15.301 -43.96,15.301 -26.69,0 -46.23,-6.754 -58.63,-20.234 -12.39,-13.481 -18.56,-35.356 -18.56,-65.61 l 0,-123.222 -20.35,0 0,319.546 20.35,0 0,-101.652 -1.05,-28.543 1.44,0 c 8.34,13.418 18.89,23.137 31.63,29.152 12.73,6.032 28.55,9.047 47.45,9.047 50.64,0 75.97,-27.179 75.97,-81.527 l 0,-146.023 -20.13,0"
         style="fill:#666666;fill-opacity:1;fill-rule:nonzero;stroke:none"
         id="path4255"
         inkscape:connector-curvature="0" /><path
         d="m 2740.92,261.52 0,146.425 c 0,21.766 -4.23,37.645 -12.73,47.645 -8.48,9.996 -21.5,14.996 -39,14.996 -22.87,0 -39.78,-6.297 -50.74,-18.898 -10.95,-12.598 -16.43,-32.375 -16.43,-59.348 l 0,-130.82 -20.73,0 0,152.589 c 0,37.649 -17.26,56.477 -51.76,56.477 -23.42,0 -40.46,-6.816 -51.15,-20.438 -10.67,-13.628 -16,-35.421 -16,-65.406 l 0,-123.222 -20.34,0 0,223.234 16.84,0 4.31,-30.602 1.23,0 c 6.17,11.09 14.93,19.68 26.29,25.782 11.37,6.082 23.89,9.136 37.58,9.136 35.2,0 57.78,-13.215 67.77,-39.644 l 0.83,0 c 7.24,12.734 17,22.531 29.27,29.379 12.24,6.836 26.16,10.265 41.79,10.265 24.37,0 42.65,-6.511 54.82,-19.515 12.19,-13.012 18.28,-33.68 18.28,-62.012 l 0,-146.023 -20.13,0"
         style="fill:#666666;fill-opacity:1;fill-rule:nonzero;stroke:none"
         id="path4257"
         inkscape:connector-curvature="0" /><path
         d="m 2869.93,275.898 c 23.82,0 42.61,6.809 56.36,20.426 13.75,13.629 20.64,32.559 20.64,56.789 l 0,21.977 -39.02,-1.645 c -31.36,-1.511 -53.7,-6.402 -67.05,-14.687 -13.35,-8.285 -20.02,-21.188 -20.02,-38.707 0,-13.969 4.29,-24.824 12.83,-32.555 8.55,-7.734 20.64,-11.598 36.26,-11.598 z m 82.13,-14.378 -5.13,35.328 -1.64,0 c -11.24,-14.383 -22.76,-24.551 -34.6,-30.5 -11.85,-5.957 -25.86,-8.934 -41.99,-8.934 -21.93,0 -38.98,5.606 -51.15,16.836 -12.19,11.223 -18.28,26.766 -18.28,46.617 0,21.774 9.07,38.68 27.22,50.731 18.13,12.047 44.38,18.414 78.76,19.097 l 42.5,1.235 0,14.781 c 0,21.219 -4.32,37.246 -12.93,48.062 -8.63,10.813 -22.53,16.219 -41.7,16.219 -20.67,0 -42.09,-5.75 -64.29,-17.25 l -7.58,17.668 c 24.5,11.492 48.73,17.242 72.7,17.242 24.5,0 42.82,-6.363 54.94,-19.097 12.11,-12.731 18.16,-32.578 18.16,-59.559 l 0,-148.476 -14.99,0"
         style="fill:#666666;fill-opacity:1;fill-rule:nonzero;stroke:none"
         id="path4259"
         inkscape:connector-curvature="0" /><path
         d="m 3042.44,359.48 113.99,125.274 24.63,0 -87.9,-95.293 95.51,-127.941 -24.45,0 -84.82,112.742 -36.55,-33.266 0,-79.476 -20.32,0 0,319.546 20.32,0 0,-160.187 -1.45,-61.399 1.04,0"
         style="fill:#666666;fill-opacity:1;fill-rule:nonzero;stroke:none"
         id="path4261"
         inkscape:connector-curvature="0" /><path
         d="m 3293.42,470.992 c -21.5,0 -38.74,-7.078 -51.74,-21.254 -13.01,-14.172 -20.62,-34.609 -22.81,-61.304 l 138.02,0 c 0,25.879 -5.63,46.105 -16.85,60.683 -11.22,14.582 -26.77,21.875 -46.62,21.875 z m 5.95,-213.578 c -32.44,0 -57.73,9.988 -75.87,29.984 -18.15,19.981 -27.23,47.981 -27.23,83.997 0,35.597 8.77,64.109 26.3,85.535 17.53,21.422 41.14,32.14 70.85,32.14 26.29,0 47.03,-9.179 62.24,-27.523 15.19,-18.352 22.79,-43.27 22.79,-74.75 l 0,-16.434 -160.81,0 c 0.26,-30.668 7.43,-54.086 21.46,-70.234 14.03,-16.164 34.13,-24.231 60.27,-24.231 12.74,0 23.94,0.887 33.59,2.665 9.65,1.773 21.87,5.617 36.66,11.503 l 0,-18.484 c -12.6,-5.48 -24.23,-9.207 -34.92,-11.191 -10.68,-1.981 -22.47,-2.977 -35.33,-2.977"
         style="fill:#666666;fill-opacity:1;fill-rule:nonzero;stroke:none"
         id="path4263"
         inkscape:connector-curvature="0" /><path
         d="m 3511.13,489.07 c 9.45,0 19.58,-0.961 30.39,-2.879 l -3.89,-19.511 c -9.33,2.328 -18.98,3.496 -28.97,3.496 -19.03,0 -34.64,-8.086 -46.84,-24.238 -12.16,-16.161 -18.25,-36.559 -18.25,-61.196 l 0,-123.222 -20.34,0 0,223.234 17.26,0 2.05,-40.246 1.43,0 c 9.17,16.418 18.96,27.957 29.38,34.601 10.4,6.637 23,9.961 37.78,9.961"
         style="fill:#666666;fill-opacity:1;fill-rule:nonzero;stroke:none"
         id="path4265"
         inkscape:connector-curvature="0" /><path
         d="m 3708.49,319.633 c 0,-19.985 -7.6,-35.356 -22.79,-46.11 -15.2,-10.746 -36.75,-16.109 -64.69,-16.109 -29.85,0 -53.53,4.586 -71.06,13.758 l 0,21.973 c 22.44,-11.227 46.14,-16.84 71.06,-16.84 22.04,0 38.78,3.656 50.2,10.988 11.45,7.32 17.17,17.078 17.17,29.27 0,11.222 -4.56,20.671 -13.65,28.332 -9.12,7.668 -24.09,15.203 -44.89,22.597 -22.33,8.074 -37.98,15.016 -47.02,20.84 -9.03,5.82 -15.85,12.391 -20.44,19.723 -4.58,7.312 -6.88,16.254 -6.88,26.793 0,16.707 7.02,29.91 21.04,39.64 14.05,9.715 33.65,14.582 58.85,14.582 24.09,0 46.96,-4.515 68.59,-13.562 l -7.61,-18.481 c -21.89,9.039 -42.22,13.559 -60.98,13.559 -18.21,0 -32.65,-3.012 -43.35,-9.039 -10.66,-6.024 -16,-14.375 -16,-25.055 0,-11.633 4.14,-20.949 12.42,-27.929 8.29,-6.985 24.47,-14.786 48.56,-23.415 20.13,-7.257 34.79,-13.793 43.96,-19.609 9.17,-5.816 16.06,-12.426 20.63,-19.824 4.59,-7.387 6.88,-16.086 6.88,-26.082"
         style="fill:#666666;fill-opacity:1;fill-rule:nonzero;stroke:none"
         id="path4267"
         inkscape:connector-curvature="0" /><path
         d="m 434.441,370.832 158.703,0 0,515.301 -158.703,0 0,-515.301 z"
         style="fill:#4285f4;fill-opacity:1;fill-rule:nonzero;stroke:none"
         id="path4269"
         inkscape:connector-curvature="0" /><path
         d="m 909.25,370.832 159.648,0 0,515.301 -159.648,0 0,-515.301 z"
         style="fill:#00bfa5;fill-opacity:1;fill-rule:nonzero;stroke:none"
         id="path4271"
         inkscape:connector-curvature="0" /><path
         d="m 910.191,370.832 158.709,0 -237.377,437.223 -158.746,0 237.414,-437.223"
         style="fill:#1ce9b6;fill-opacity:1;fill-rule:nonzero;stroke:none"
         id="path4273"
         inkscape:connector-curvature="0" /><path
         d="m 593.145,370.832 -158.704,0 237.395,437.223 158.707,0 -237.398,-437.223"
         style="fill:#4fc3f7;fill-opacity:1;fill-rule:nonzero;stroke:none"
         id="path4275"
         inkscape:connector-curvature="0" /><path
         d="m 341.094,292.652 0,669.828 173.711,0 0,101.52 -235.332,0 c -22.016,0 -40.047,-18.02 -40.047,-40.06 l 0,-786.713 c 0,-22.039 18.031,-44.286 40.047,-44.286 l 235.332,0 0,99.711 -173.711,0"
         style="fill:#4285f4;fill-opacity:1;fill-rule:nonzero;stroke:none"
         id="path4277"
         inkscape:connector-curvature="0" /><path
         d="m 1162.23,292.652 0,669.828 -173.714,0 0,101.52 235.334,0 c 22.02,0 40.07,-18.02 40.07,-40.06 l 0,-786.713 c 0,-22.039 -18.05,-44.286 -40.07,-44.286 l -235.334,0 0,99.711 173.714,0"
         style="fill:#00bfa5;fill-opacity:1;fill-rule:nonzero;stroke:none"
         id="path4279"
         inkscape:connector-curvature="0" /></g></g></svg>